# xmcd
#
# Track frame offsets:
#	150
#	11023
#	15746
#	43194
#	67567
#	93515
#	124563
#	155236
#	189284
#	216732
#	229855
#	275228
#	297576
#
# Disc length: 4288 seconds
#
# Revision: 3
# Processed by: cddbd v1.5.1PL0 Copyright (c) Steve Scherf et al.
# Submitted via: EasyCDDAExtractor 5.1.0
#
DISCID=c210be0d
DTITLE=Black Sabbath - Satanic Memory Tokyo 16-10-89 Disc 1
DYEAR=1989
DGENRE=Hard Rock
TTITLE0=Ave Santani
TTITLE1=The Gates Of Hell
TTITLE2=Headless Cross
TTITLE3=Neon Knights
TTITLE4=Children Of The Sea
TTITLE5=Die Young
TTITLE6=When Death Calls
TTITLE7=War Pigs
TTITLE8=The Shining
TTITLE9=The Mob Rules
TTITLE10=Black Sabbath
TTITLE11=Iron Man
TTITLE12=Children Of The Grave
EXTD=
EXTT0=
EXTT1=
EXTT2=
EXTT3=
EXTT4=
EXTT5=
EXTT6=
EXTT7=
EXTT8=
EXTT9=
EXTT10=
EXTT11=
EXTT12=
PLAYORDER=
